<?xml version="1.0" standalone="no"?>
<!DOCTYPE svg PUBLIC "-//W3C//DTD SVG 20010904//EN"
 "http://www.w3.org/TR/2001/REC-SVG-20010904/DTD/svg10.dtd">
<svg version="1.0" xmlns="http://www.w3.org/2000/svg"
 width="700.000000pt" height="700.000000pt" viewBox="0 0 700.000000 700.000000"
 preserveAspectRatio="xMidYMid meet">
<metadata>
Created by potrace 1.14, written by Peter Selinger 2001-2017
</metadata>
<g transform="translate(0.000000,700.000000) scale(0.100000,-0.100000)"
fill="#000000" stroke="none">
<path d="M6430 6557 c-57 -14 -89 -45 -155 -146 -164 -250 -331 -416 -567
-563 -227 -141 -494 -230 -793 -264 -84 -9 -289 -11 -355 -3 -30 4 -77 10
-105 13 -54 6 -101 14 -125 21 -8 2 -31 7 -50 10 -19 3 -48 10 -65 15 -40 12
-104 22 -223 35 -29 4 -63 8 -75 11 -25 5 -320 5 -387 0 -303 -23 -631 -116
-905 -256 -97 -50 -271 -153 -285 -170 -3 -3 -21 -17 -40 -30 -105 -71 -294
-244 -400 -365 -336 -383 -538 -865 -576 -1375 -8 -102 -8 -129 0 -137 4 -5
74 43 86 58 5 7 259 174 295 195 229 132 309 175 431 234 79 38 146 70 148 70
3 0 33 13 68 29 106 49 347 136 533 194 73 23 342 94 390 103 11 2 55 11 98
20 42 8 87 17 100 19 236 40 227 39 412 61 22 2 58 7 80 9 22 3 74 7 115 10
41 3 118 7 172 11 53 3 163 6 245 7 137 1 151 -1 192 -22 25 -13 53 -33 63
-45 81 -91 74 -237 -13 -310 -60 -51 -86 -56 -288 -61 -103 -2 -224 -7 -267
-10 -146 -11 -346 -31 -395 -40 -9 -2 -40 -6 -70 -10 -165 -21 -517 -96 -679
-147 -143 -44 -317 -101 -345 -113 -16 -7 -88 -36 -160 -65 -416 -170 -815
-412 -1180 -719 -130 -109 -436 -417 -546 -551 -84 -102 -123 -153 -235 -305
-182 -249 -418 -693 -509 -955 -1 -3 -4 -12 -8 -20 -81 -200 -68 -358 39 -463
72 -71 138 -97 243 -93 163 5 262 90 316 271 14 50 30 99 35 110 4 11 19 49
33 85 128 334 357 704 619 1003 84 95 236 247 247 247 3 0 15 -17 26 -37 22
-44 178 -285 197 -305 7 -7 31 -36 53 -63 63 -79 262 -275 355 -349 428 -342
962 -530 1500 -529 90 0 257 10 296 17 11 2 39 7 64 10 41 6 214 41 250 51
294 82 684 245 895 375 72 44 203 129 220 142 6 5 42 32 80 60 39 29 81 62 95
74 113 97 143 125 205 184 364 352 644 770 855 1275 79 190 196 575 226 745 4
25 8 47 9 50 1 4 13 68 20 110 1 8 6 35 10 60 4 25 9 54 11 65 2 10 6 49 10
85 3 36 8 74 10 85 25 125 24 781 -1 937 -2 13 -6 48 -9 78 -4 30 -8 66 -10
80 -6 37 -30 174 -31 180 -1 3 -5 25 -9 50 -8 48 -62 275 -76 325 -78 259
-181 530 -222 580 -45 53 -122 79 -188 62z"/>
</g>
</svg>
